<?xml version="1.0" encoding="UTF-8"?>
<svg width="700pt" height="700pt" version="1.1" viewBox="150 50 400 460" xmlns="http://www.w3.org/2000/svg" xmlns:xlink="http://www.w3.org/1999/xlink">
 <defs>
 </defs>
 <g>
  <path fill="white" d="m173.77 97.16c-5.8789-5.8789-13.719-9.1289-22.062-9.1289h-0.054687c-8.3438 0-16.184 3.2461-22.062 9.1836-5.9414 5.9375-9.1914 13.832-9.1914 22.234 0 8.2891 3.2461 16.129 9.1289 21.953 5.9375 5.9922 13.777 9.2383 21.895 9.2383 1.2305 0 2.4648-0.054687 3.6406-0.22266l47.992 53.594v21.281l-18.871 33.938c-3.8086 6.9453-2.5742 15.68 3.0234 21.281l4.2578 4.2578c3.7539 3.7539 8.7344 5.7695 14.055 5.7695 0.78516 0 1.5664-0.16797 2.3516-0.28125 5.8242 30.688 16.855 59.754 32.816 86.633l-21.672 19.824c-0.72656 0.67188-1.2305 1.457-1.5117 2.3516l-21.559 65.52c-0.67187 2.0156-0.11328 4.1992 1.3438 5.7109 1.0625 1.0625 2.5195 1.625 3.9766 1.625 0.55859 0 1.1758-0.11328 1.7344-0.28125l65.52-21.559c0.89453-0.28125 1.7344-0.83984 2.3516-1.5117l14.336-15.625c15.062 14.559 31.809 27.441 50.176 38.191l11.762 6.8867c0.89453 0.50391 1.8477 0.78516 2.8555 0.78516s1.9609-0.28125 2.8555-0.78516l11.762-6.8867c18.145-10.695 34.945-23.574 50.176-38.191l14.336 15.625c0.67188 0.72656 1.457 1.2305 2.3516 1.5664l65.52 21.559c0.55859 0.16797 1.1758 0.28125 1.7344 0.28125 1.457 0 2.9102-0.55859 3.9766-1.625 1.5117-1.5117 2.0156-3.6953 1.3438-5.7109l-21.559-65.52c-0.28125-0.89453-0.83984-1.7344-1.5117-2.3516l-21.672-19.824c15.961-26.879 26.938-56 32.816-86.633 0.78516 0.11328 1.5664 0.28125 2.3516 0.28125 5.1523 0 10.246-2.0156 14.055-5.7695l4.2578-4.2578c5.6016-5.6016 6.832-14.336 3.0234-21.281l-18.816-33.938v-21.281l47.992-53.594c1.2305 0.16797 2.4062 0.22266 3.6406 0.22266 8.1211 0 15.961-3.2461 21.895-9.1836 5.8242-5.9922 9.0742-13.777 9.0742-22.062 0-8.3984-3.2461-16.238-9.1836-22.176-5.8789-5.9375-13.719-9.1836-22.062-9.1836h-0.054688c-8.3438 0-16.129 3.2461-22.062 9.1289-6.832 6.832-10.023 16.184-8.9609 25.535l-20.383 18.199v-2.0703c0-2.5195-1.625-4.7031-4.0312-5.375-24.359-7-44.352-25.199-53.594-48.664-0.83984-2.1289-2.9102-3.5273-5.207-3.5273l-168.18-0.003906c-2.2969 0-4.3672 1.3984-5.207 3.5273-9.1836 23.465-29.23 41.664-53.594 48.664-2.4062 0.67188-4.0312 2.9102-4.0312 5.375v2.0703l-20.383-18.199c1.1211-9.4062-2.0703-18.758-8.9023-25.59zm-36.344 36.289c-3.7539-3.7539-5.8242-8.7383-5.8242-14.059 0-5.375 2.0703-10.414 5.9375-14.281 3.7539-3.8086 8.793-5.8789 14.168-5.8789 5.3203 0 10.359 2.0703 14.113 5.8242 4.9297 4.9297 6.9453 11.816 5.375 18.48v0.054688c-0.83984 3.7539-2.6875 7.168-5.375 9.8555-2.6328 2.6875-6.0469 4.5352-9.8555 5.375-6.7266 1.5703-13.613-0.44531-18.539-5.3711zm31.359 11.926c0.55859-0.33594 1.1211-0.67188 1.6797-1.0625 1.1758-0.89453 2.2383-1.8477 3.3047-2.8555 1.0625-1.0625 2.0156-2.1289 2.9102-3.3047 0.50391-0.67188 0.89453-1.3438 1.3438-2.0156 0.33594-0.55859 0.72656-1.0625 1.0625-1.625l25.93 23.184 30.633 27.441-18.141 18.141-4.5938-5.0977-46.031-51.406c0.61328-0.5 1.2305-1.0039 1.9023-1.3984zm278.82 28.227-39.145-21.672c-6.8867-3.8633-15.625-2.6875-21.336 2.9688l-4.1992 4.1992c-3.7539 3.7539-5.8242 8.7344-5.8242 14.055 0 5.2656 2.1289 10.359 5.7695 13.887 4.7617 4.9297 13.551 5.0391 18.48 0.054688 0.72656-0.72656 1.793-0.72656 2.5742 0l20.887 20.887-74.816 68.605-74.762-68.547 20.887-20.887c0.50391-0.50391 1.0078-0.55859 1.2305-0.55859 0.33594 0 0.83984 0.11328 1.2891 0.55859 4.9297 4.9297 13.664 4.8711 18.426 0 3.7539-3.7539 5.8242-8.6797 5.8242-14 0-5.3203-2.0703-10.305-5.8242-14l-4.2578-4.3125c-5.6562-5.6016-14.449-6.7773-21.281-2.9102l-39.199 21.727v-7.1133c15.734-9.5742 29.457-22.566 39.984-37.801h115.25c10.527 15.23 24.246 28.223 39.984 37.801l0.003906 7.0586zm-25.371 169.23-29.512-27.105 54.488-59.414c-1.7344 30.352-10.305 59.918-24.977 86.52zm-37.797-34.609-17.246-15.848-8.9023-8.1758 74.426-68.266 18.984 18.984zm-185.03-31.414-4.2578-4.2578c-2.0703-2.0703-2.5742-5.375-1.1211-7.9531l27.664-49.895 25.426-25.426 0.44922-0.22266 1.9609-1.0625c0.054688 0 0.054688-0.054688 0.11328-0.054688l47.434-26.266c2.5742-1.457 5.7695-1.0078 7.8945 1.0625l4.2578 4.3125c1.625 1.625 2.5195 3.7539 2.5195 6.0469 0 2.2969-0.95312 4.4805-2.5781 6.1055 0 0.054687-0.054687 0.054687-0.11328 0.11328-0.89453 0.95312-1.6797 0.72656-2.4648-0.054688-4.8711-4.8711-13.496-4.9297-18.367 0l-76.605 76.605c-2.4648 2.4648-3.8633 5.7695-3.8086 9.2969 0 3.4727 1.3984 6.7188 3.8086 9.1289 0.44922 0.44922 0.55859 1.0078 0.55859 1.2891 0 0.33594-0.11328 0.83984-0.55859 1.2891-0.61719 0.61719-1.2891 1.1211-1.9609 1.457-1.2891 0.67188-2.6875 1.0078-4.1445 1.0078-1.625-0.003906-4.0312-0.45312-6.1055-2.5234zm78.348 66.078c-14.672-26.656-23.238-56.223-24.977-86.52l54.543 59.473zm-59.418-57.062c0.39062-0.33594 0.78516-0.67188 1.1211-1.0625 2.4648-2.4648 3.8086-5.7109 3.8086-9.2383 0-3.5273-1.3438-6.7773-3.8633-9.2969-0.39062-0.39062-0.50391-0.89453-0.50391-1.1758s0.054688-0.83984 0.55859-1.2891l20.887-20.887 0.78516 0.83984v1.0625c0 37.184 9.6875 73.695 28 105.95l-20.105 18.426c-15.008-25.875-25.312-53.875-30.688-83.332zm45.305 154.11-53.594 17.641 17.641-53.594 28.391-26.039 24.023-22.008c0.054687-0.054688 0.054687-0.054688 0.054687-0.11328l34.719-31.809 10.414 11.312 17.137 18.703zm86.352-77.562 30.574 33.32c-9.4062 8.5117-19.602 16.238-30.574 22.961-10.922-6.6641-21.113-14.391-30.574-22.902zm8.9023 99.121-8.9023 5.207-8.9023-5.207c-17.641-10.359-33.879-22.68-48.328-36.68l19.039-20.777c10.863 9.8008 22.734 18.48 35.336 25.93 1.7344 1.0625 3.9219 1.0625 5.7109 0 12.711-7.5039 24.586-16.184 35.336-25.984l19.098 20.832c-14.672 14.055-30.914 26.375-48.387 36.68zm131.04-3.9219-53.594-17.641-17.078-18.648c-0.054688-0.054687-0.054688-0.054687-0.054688-0.11328l-26.543-28.953c-0.054687-0.054688-0.054687-0.054688-0.11328-0.054688l-58.297-63.555-14.895-16.297s-0.054688 0-0.054688-0.054688l-71.012-77.336 18.984-18.984 94.359 86.574 19.32 17.754s0.054688 0 0.054688 0.054687l38.414 35.223c0.16797 0.16797 0.28125 0.33594 0.44922 0.50391l52.414 47.992zm-39.035-88.367-16.465-15.062-3.6953-3.3594c18.367-32.258 28-68.824 28-105.95v-1.0625l0.78516-0.83984 20.887 20.887c0.50391 0.50391 0.55859 1.0078 0.55859 1.2891 0 0.44922-0.16797 0.89453-0.55859 1.2305-2.4648 2.4648-3.8086 5.7695-3.8086 9.2383 0 3.4727 1.3438 6.7773 3.8086 9.2383 0.39062 0.39062 0.72656 0.72656 1.1211 1.0625-5.2617 29.406-15.566 57.406-30.633 83.332zm53.93-96.656-4.2578 4.2578c-2.6875 2.6875-6.832 3.3047-10.246 1.457-0.67188-0.33594-1.3438-0.83984-1.9609-1.457-0.44922-0.44922-0.55859-0.95312-0.55859-1.2891 0-0.28125 0.054688-0.83984 0.55859-1.2891 2.4648-2.4648 3.8086-5.7109 3.8086-9.1836s-1.3438-6.7773-3.8086-9.2383l-51.574-51.574-24.977-25.035c-2.4648-2.4648-5.7109-3.8086-9.1836-3.8086s-6.7188 1.3438-9.1836 3.8086c-0.78516 0.78516-1.457 1.1758-2.5742-0.054688-1.625-1.5664-2.5195-3.7539-2.5195-6.0469 0-2.3516 0.89453-4.4258 2.5742-6.1602l4.1445-4.1992c2.1836-2.1289 5.3203-2.5742 7.9531-1.1211l47.543 26.32 2.3516 1.2891 25.426 25.426 27.664 49.895c1.3945 2.6289 0.94922 5.9336-1.1797 8.0039zm-17.641-74.48-4.5938 5.0977-18.141-18.141 30.633-27.441 25.871-23.188c0.44922 0.78516 0.95312 1.5117 1.457 2.2383 0.28125 0.44922 0.55859 0.95312 0.89453 1.3984 0.89453 1.1758 1.8477 2.2383 2.8555 3.3047 1.0625 1.0625 2.1289 2.0156 3.3047 2.9102 0.50391 0.39062 1.0625 0.67188 1.5664 1.0078 0.72656 0.44922 1.3984 0.95313 2.1289 1.3984zm46.984-92.957c3.7539-3.7539 8.793-5.8242 14.113-5.8242 5.375 0 10.359 2.1289 14.168 5.8789 3.8086 3.8086 5.9375 8.9023 5.8789 14.281 0 5.3203-2.0703 10.305-5.8242 14.055-4.8711 4.9297-11.816 6.9453-18.535 5.375-3.7539-0.83984-7.168-2.6875-9.8555-5.375-2.6875-2.6328-4.5352-6.0469-5.375-9.8555-1.5156-6.7188 0.50391-13.664 5.4297-18.535zm-319.93 37.797c24.641-8.3438 44.91-26.879 55.383-50.512h160.78c10.473 23.688 30.742 42.168 55.383 50.512v8.0078l-26.938 24.078v-11.762c0-2.0156-1.0625-3.8633-2.8008-4.8711-16.238-9.3516-30.352-22.625-40.711-38.414-1.0625-1.5664-2.8008-2.5195-4.7031-2.5195l-121.24 0.003906c-1.9023 0-3.6406 0.95312-4.7031 2.5195-10.359 15.793-24.473 29.062-40.711 38.414-1.7344 1.0078-2.8008 2.8555-2.8008 4.8711v11.762l-26.938-24.078z"/>
  <use x="70" y="644" xlink:href="#t"/>
  <use x="90.550781" y="644" xlink:href="#d"/>
  <use x="104.359375" y="644" xlink:href="#b"/>
  <use x="123.347656" y="644" xlink:href="#j"/>
  <use x="142.242188" y="644" xlink:href="#a"/>
  <use x="155.628906" y="644" xlink:href="#b"/>
  <use x="174.617188" y="644" xlink:href="#i"/>
  <use x="204.410156" y="644" xlink:href="#h"/>
  <use x="224.453125" y="644" xlink:href="#g"/>
  <use x="252.453125" y="644" xlink:href="#f"/>
  <use x="274.121094" y="644" xlink:href="#a"/>
  <use x="287.507812" y="644" xlink:href="#e"/>
  <use x="307.4375" y="644" xlink:href="#c"/>
  <use x="326.675781" y="644" xlink:href="#s"/>
  <use x="70" y="672" xlink:href="#r"/>
  <use x="82.183594" y="672" xlink:href="#d"/>
  <use x="95.992188" y="672" xlink:href="#c"/>
  <use x="115.226562" y="672" xlink:href="#q"/>
  <use x="154.152344" y="672" xlink:href="#a"/>
  <use x="167.535156" y="672" xlink:href="#e"/>
  <use x="187.46875" y="672" xlink:href="#b"/>
  <use x="216.207031" y="672" xlink:href="#p"/>
  <use x="239.640625" y="672" xlink:href="#c"/>
  <use x="258.878906" y="672" xlink:href="#o"/>
  <use x="278.8125" y="672" xlink:href="#n"/>
  <use x="308.492188" y="672" xlink:href="#m"/>
  <use x="329.015625" y="672" xlink:href="#d"/>
  <use x="342.820312" y="672" xlink:href="#c"/>
  <use x="362.058594" y="672" xlink:href="#l"/>
  <use x="371.65625" y="672" xlink:href="#b"/>
  <use x="390.648438" y="672" xlink:href="#k"/>
  <use x="407.242188" y="672" xlink:href="#a"/>
 </g>
</svg>
